# xmcd CD database file
#
# Track frame offsets:
#	150
#	12846
#	25520
#	39578
#	52345
#	66899
#	82357
#	105475
#	120250
#	133738
#	145708
#	158638
#	169631
#	181690
#	199933
#	209568
#
# Disc length: 2986 seconds
#
# Revision: 0
# Processed by: cddbd v1.5.1PL2 Copyright (c) Steve Scherf et al.
# Submitted via: CDex 1.51
#
DISCID=d90ba810
DTITLE=Various Artist - Cole Porter: De-Lovely [CD2]
DYEAR=1900
DGENRE=Jazz
TTITLE0=Dinah Washington - Why Can't You Behave
TTITLE1=Maurice Chevalier - You've Got That Thing
TTITLE2=Louis Armstrong - High Society Calypso
TTITLE3=Roy Rogers - Don't Fence Me In
TTITLE4=Benny Goodman - You Do Something To Me
TTITLE5=Mills Brothers - Miss Otis Regrets
TTITLE6=Marilyn Monroe - My Heart Belongs To Daddy
TTITLE7=Cole Porter - Two Little Babes In The Wood
TTITLE8=Fred Astaire - Since I Kissed My Baby Goodbye
TTITLE9=Dean Martin - C'est Magnifique
TTITLE10=Sarah Vaughan - I Get A Kick Out Of You
TTITLE11=Danny Kaye - Let's Not Talk About Love
TTITLE12=Les Paul - What Is This Thing Called Love
TTITLE13=Larenzo Fuller, Eddie Sledge and Fred Davis - Too Darn Hot
TTITLE14=Bing Crosby and Ginny Simms - You'd Be So Nice To Come Home To
TTITLE15=Mel Torme - Get Out Of Town
EXTD=
EXTT0=
EXTT1=
EXTT2=
EXTT3=
EXTT4=
EXTT5=
EXTT6=
EXTT7=
EXTT8=
EXTT9=
EXTT10=
EXTT11=
EXTT12=
EXTT13=
EXTT14=
EXTT15=
PLAYORDER=
